<?xml version="1.0" encoding="UTF-8" standalone="no"?>
<svg
   inkscape:version="1.2.1 (9c6d41e410, 2022-07-14)"
   sodipodi:docname="Texture.svg"
   id="svg8"
   version="1.1"
   viewBox="0 0 135.46666 135.46667"
   height="512"
   width="512"
   xml:space="preserve"
   inkscape:export-filename="Texture.png"
   inkscape:export-xdpi="506.56"
   inkscape:export-ydpi="506.56"
   xmlns:inkscape="http://www.inkscape.org/namespaces/inkscape"
   xmlns:sodipodi="http://sodipodi.sourceforge.net/DTD/sodipodi-0.dtd"
   xmlns="http://www.w3.org/2000/svg"
   xmlns:svg="http://www.w3.org/2000/svg"
   xmlns:rdf="http://www.w3.org/1999/02/22-rdf-syntax-ns#"
   xmlns:cc="http://creativecommons.org/ns#"
   xmlns:dc="http://purl.org/dc/elements/1.1/"><defs
     id="defs2" /><sodipodi:namedview
     inkscape:window-maximized="1"
     inkscape:window-y="-8"
     inkscape:window-x="2552"
     inkscape:window-height="1377"
     inkscape:window-width="2560"
     units="px"
     showgrid="false"
     inkscape:document-rotation="0"
     inkscape:current-layer="layer2"
     inkscape:document-units="mm"
     inkscape:cy="126.42857"
     inkscape:cx="368.21429"
     inkscape:zoom="1.4"
     inkscape:pageshadow="2"
     inkscape:pageopacity="0.0"
     borderopacity="1.0"
     bordercolor="#666666"
     pagecolor="#ffffff"
     id="base"
     inkscape:showpageshadow="2"
     inkscape:pagecheckerboard="0"
     inkscape:deskcolor="#d1d1d1" /><metadata
     id="metadata5"><rdf:RDF><cc:Work
         rdf:about=""><dc:format>image/svg+xml</dc:format><dc:type
           rdf:resource="http://purl.org/dc/dcmitype/StillImage" /></cc:Work></rdf:RDF></metadata><g
     inkscape:label="Back"
     id="layer2"
     inkscape:groupmode="layer"><rect
       transform="scale(-1,1)"
       y="0"
       x="-135.46666"
       height="135.46666"
       width="135.46666"
       id="rect852"
       style="fill:#000000;fill-opacity:1;stroke:none;stroke-width:0.529167;stroke-linejoin:round" /></g><g
     inkscape:groupmode="layer"
     id="layer4"
     inkscape:label="lights"
     sodipodi:insensitive="true"><circle
       style="fill:#ffffff;stroke:none;stroke-width:43.4464"
       id="path1055"
       cx="19.579166"
       cy="19.579166"
       r="6.7885108" /><circle
       style="fill:#ffffff;stroke:none;stroke-width:16.9333"
       id="circle1057"
       cx="53.445835"
       cy="19.579166"
       r="2.6458333" /><path
       style="fill:#ffffff;fill-opacity:1;stroke-width:0.247852"
       inkscape:connector-curvature="0"
       id="path3495"
       d="m 130.4179,25.224025 -0.79314,-2.106753 c -0.34699,-0.867486 -1.14012,-1.462334 -2.13153,-1.462334 h -0.347 V 3.5120804 h -17.2258 V 13.550137 h 2.25547 l 2.57767,-3.222092 c 0.52049,-0.5948482 1.31362,-0.9914134 2.18111,-0.9914134 h 5.50234 c 0.86749,0 1.63583,0.4709214 2.0324,1.2392664 l 1.63583,3.098165 c 0.0744,0.123927 0.12393,0.272639 0.12393,0.470922 0,0.545277 -0.47092,1.040983 -1.04099,1.040983 -0.44613,0 -0.74356,-0.198282 -0.94184,-0.545277 l -1.46233,-2.825527 h -2.37939 l 1.83411,4.5605 0.54528,5.824551 h 4.70921 c 0.74356,0 1.33841,0.470921 1.63583,1.11534 l 0.52049,1.338408 h -8.12959 c -0.59484,0 -1.11533,-0.446136 -1.14012,-1.040984 l -0.54528,-5.105777 -4.36221,9.046643 c -0.24786,0.520493 -0.79313,0.867487 -1.43755,0.867487 h -2.10676 l 5.35363,-11.07904 -1.66061,-4.163935 -1.58626,1.933255 c -0.39657,0.520492 -1.06577,0.867487 -1.78455,0.867487 h -2.32982 V 29.06575 l 3.7178,3.693013 h -10.9799 V 1.0583336 h 31.75001 V 32.808334 h -3.56909 l -3.69302,-3.693014 v -3.891295 h 3.27167" /><path
       style="fill:#ffffff;fill-opacity:1;stroke-width:0.247852"
       inkscape:connector-curvature="0"
       id="path3499"
       d="m 116.5629,29.933237 2.85031,2.850313 h -3.44516 l -3.7178,-3.693014 h 2.23068 c 0.76835,0 1.53669,0.322208 2.08197,0.842701 z" /><circle
       r="2.2484541"
       cy="6.9511123"
       cx="115.55388"
       id="path831"
       style="display:inline;fill:#ffffff;fill-opacity:1;fill-rule:nonzero;stroke:none;stroke-width:0;stroke-miterlimit:4;stroke-dasharray:none;stroke-opacity:1" /></g><g
     inkscape:label="Arrow"
     id="layer3"
     inkscape:groupmode="layer"
     sodipodi:insensitive="true"><path
       id="path859"
       d="M 8.4667969,76.199219 V 135.4668 H 25.400391 V 93.132812 h 16.933593 v 8.466798 H 59.267578 V 76.199219 Z"
       style="color:#000000;font-style:normal;font-variant:normal;font-weight:normal;font-stretch:normal;font-size:medium;line-height:normal;font-family:sans-serif;font-variant-ligatures:normal;font-variant-position:normal;font-variant-caps:normal;font-variant-numeric:normal;font-variant-alternates:normal;font-variant-east-asian:normal;font-feature-settings:normal;font-variation-settings:normal;text-indent:0;text-align:start;text-decoration:none;text-decoration-line:none;text-decoration-style:solid;text-decoration-color:#000000;letter-spacing:normal;word-spacing:normal;text-transform:none;writing-mode:lr-tb;direction:ltr;text-orientation:mixed;dominant-baseline:auto;baseline-shift:baseline;text-anchor:start;white-space:normal;shape-padding:0;shape-margin:0;inline-size:0;clip-rule:nonzero;display:inline;overflow:visible;visibility:visible;opacity:1;isolation:auto;mix-blend-mode:normal;color-interpolation:sRGB;color-interpolation-filters:linearRGB;solid-color:#000000;solid-opacity:1;vector-effect:none;fill:#ffffff;fill-opacity:1;fill-rule:nonzero;stroke:none;stroke-width:16.9333;stroke-linecap:butt;stroke-linejoin:miter;stroke-miterlimit:4;stroke-dasharray:none;stroke-dashoffset:0;stroke-opacity:1;color-rendering:auto;image-rendering:auto;shape-rendering:auto;text-rendering:auto;enable-background:accumulate;stop-color:#000000;stop-opacity:1" /><path
       sodipodi:nodetypes="cccccc"
       d="m 42.333984,101.55275 h 16.933333 v 3.66676 l -8.466666,3.49628 -8.466667,-3.49628 z"
       style="fill:#ffffff;fill-opacity:1;stroke:none;stroke-width:21.1039;stroke-linejoin:round;stroke-miterlimit:4;stroke-dasharray:none;stroke-opacity:1"
       id="rect861" /><path
       style="fill:#ffffff;stroke:none;stroke-width:0.264583px;stroke-linecap:butt;stroke-linejoin:miter;stroke-opacity:1"
       d="m 38.587039,107.15625 12.196257,5.79853 12.192085,-5.79853 -12.158677,24.37376 z"
       id="path171"
       sodipodi:nodetypes="ccccc" /></g></svg>
